# xmcd CD database file
#
# Track frame offsets:
#	150
#	10168
#	28392
#	43928
#	56858
#	69893
#	85439
#	99000
#	110917
#	124070
#	134165
#	147820
#
# Disc length: 2272 seconds
#
# Revision: 0
# Processed by: cddbd v1.5.2PL0 Copyright (c) Steve Scherf et al.
# Submitted via: CDex 1.86
#
DISCID=b108de0c
DTITLE=Lucious Spiller - Born to Sing the Blues
DYEAR=2017
DGENRE=Blues
TTITLE0=Walk With Me
TTITLE1=Little Red Rooster
TTITLE2=You Belong to Me
TTITLE3=(You're Gonna Make Me) Stop Loving You
TTITLE4=4 O'clock in the Morning
TTITLE5=Brother John
TTITLE6=Sweet Home Chicago
TTITLE7=Are You Gonna Stay With Me
TTITLE8=Born to Sing the Blues
TTITLE9=Put the Blame on Me
TTITLE10=You Hurt Me (For the Last Time)
TTITLE11=Rainy Night in Georgia
EXTD=YEAR: 2017
EXTT0=
EXTT1=
EXTT2=
EXTT3=
EXTT4=
EXTT5=
EXTT6=
EXTT7=
EXTT8=
EXTT9=
EXTT10=
EXTT11=
PLAYORDER=
